<svg id="Hat" xmlns="http://www.w3.org/2000/svg" viewBox="0 0 237.07 282.4"><title>hat</title><path d="M283.48,96.56C272.3,82,254,78.48,233.21,86.93c-3-35.72-33.15-53.74-62.26-53.11-26.42.58-54.72,17.2-56.41,52.24-19.87-7.31-37.24-3.57-48,10.5-13.88,18.11-13.32,47.94,1.24,66.5a42.13,42.13,0,0,0,26.7,15.8V313.7h.12a1.44,1.44,0,0,0,1.17,1.68l0,.06a1.45,1.45,0,0,0,.22.21,1.35,1.35,0,0,0,.94.49v.06H251v-.07a2.85,2.85,0,0,0,.29,0,2.1,2.1,0,0,0,2.15-2h.06v-135a42.43,42.43,0,0,0,28.79-16.11C296.8,144.5,297.36,114.67,283.48,96.56Zm-35,214.64h-149V179.46c1.31.1,2.63.16,4,.16,9.9,0,20.88-2.53,32.52-7.63l-.25-.55c12.49,11.31,26.44,17.39,40.75,17.39.7,0,1.41,0,2.12,0,13.13-.55,25.44-6.33,36.06-16.54,11.41,4.93,22.17,7.37,31.9,7.37.65,0,1.28,0,1.91-.05ZM278.31,160c-7.41,9.45-25,22.85-59.92,8.42a106,106,0,0,0,18.22-29.2,2.9,2.9,0,0,0,.28-.65c.12-.29.25-.58.38-.88l-.28-.11a2.47,2.47,0,0,0-4.12-1.72l-.22-.09c-12.37,29.61-32.15,47.12-54.27,48-23.7,1-46.73-16.59-63.2-48.24h0a2.31,2.31,0,0,0-2.17-1.29c-2.35,0-3,2.61-2,4.1a123.78,123.78,0,0,0,21.24,29.77C96.87,183,79.15,169.47,71.69,160c-13-16.59-13.57-44.23-1.2-60.37C80.52,86.5,96.68,83.8,116,92l.08-.19A2.77,2.77,0,0,0,117,92a2.37,2.37,0,0,0,2.44-2.27h.07c-.07-15.52,5.39-28.56,15.78-37.72,9.28-8.18,22-12.85,35.83-13.15,14.23-.32,28.29,4.21,38.56,12.41C221.27,60.53,227.76,74,228.4,90a2.52,2.52,0,0,0,2.3,3.52,2.3,2.3,0,0,0,2-1.06,2.31,2.31,0,0,0,1.34-.52c19.28-8.18,35.42-5.47,45.45,7.62C291.88,115.74,291.33,143.38,278.31,160Z" transform="translate(-56.46 -33.8)"/></svg>