<svg>		
		<symbol id="Hat" xmlns="http://www.w3.org/2000/svg" viewBox="0 0 237.07 282.4">
			<title>hat</title>
			<path d="M283.48,96.56C272.3,82,254,78.48,233.21,86.93c-3-35.72-33.15-53.74-62.26-53.11-26.42.58-54.72,17.2-56.41,52.24-19.87-7.31-37.24-3.57-48,10.5-13.88,18.11-13.32,47.94,1.24,66.5a42.13,42.13,0,0,0,26.7,15.8V313.7h.12a1.44,1.44,0,0,0,1.17,1.68l0,.06a1.45,1.45,0,0,0,.22.21,1.35,1.35,0,0,0,.94.49v.06H251v-.07a2.85,2.85,0,0,0,.29,0,2.1,2.1,0,0,0,2.15-2h.06v-135a42.43,42.43,0,0,0,28.79-16.11C296.8,144.5,297.36,114.67,283.48,96.56Zm-35,214.64h-149V179.46c1.31.1,2.63.16,4,.16,9.9,0,20.88-2.53,32.52-7.63l-.25-.55c12.49,11.31,26.44,17.39,40.75,17.39.7,0,1.41,0,2.12,0,13.13-.55,25.44-6.33,36.06-16.54,11.41,4.93,22.17,7.37,31.9,7.37.65,0,1.28,0,1.91-.05ZM278.31,160c-7.41,9.45-25,22.85-59.92,8.42a106,106,0,0,0,18.22-29.2,2.9,2.9,0,0,0,.28-.65c.12-.29.25-.58.38-.88l-.28-.11a2.47,2.47,0,0,0-4.12-1.72l-.22-.09c-12.37,29.61-32.15,47.12-54.27,48-23.7,1-46.73-16.59-63.2-48.24h0a2.31,2.31,0,0,0-2.17-1.29c-2.35,0-3,2.61-2,4.1a123.78,123.78,0,0,0,21.24,29.77C96.87,183,79.15,169.47,71.69,160c-13-16.59-13.57-44.23-1.2-60.37C80.52,86.5,96.68,83.8,116,92l.08-.19A2.77,2.77,0,0,0,117,92a2.37,2.37,0,0,0,2.44-2.27h.07c-.07-15.52,5.39-28.56,15.78-37.72,9.28-8.18,22-12.85,35.83-13.15,14.23-.32,28.29,4.21,38.56,12.41C221.27,60.53,227.76,74,228.4,90a2.52,2.52,0,0,0,2.3,3.52,2.3,2.3,0,0,0,2-1.06,2.31,2.31,0,0,0,1.34-.52c19.28-8.18,35.42-5.47,45.45,7.62C291.88,115.74,291.33,143.38,278.31,160Z" transform="translate(-56.46 -33.8)"/>
		</symbol>

		<symbol id="Whisk" xmlns="http://www.w3.org/2000/svg" viewBox="0 0 94.78 316.88">
			<title>Whisk</title>
			<path d="M188.83,271.69c0,33.41-6.26,60.5-14,60.5s-14-27.09-14-60.5,6.27-60.5,14-60.5S188.83,238.28,188.83,271.69Zm-14-55c-1.25,1.56-3.58,6.08-5.62,16.13-2.18,10.71-3.38,24.52-3.38,38.89s1.2,28.17,3.38,38.89c2,10.05,4.37,14.56,5.62,16.13,1.26-1.57,3.59-6.08,5.63-16.13,2.18-10.72,3.37-24.53,3.37-38.89s-1.19-28.18-3.37-38.89c-2-10.05-4.37-14.57-5.63-16.13m0-5.48c7.74,0,14,27.09,14,60.5s-6.26,60.5-14,60.5-14-27.09-14-60.5,6.27-60.5,14-60.5Zm2.64,1.79c61-101.21,50.59-164.35,23.17-187.67-15.56-13.24-36.39-13.34-51.82-.25-8.83,7.49-23.29,25.84-21,64.62,2.12,35.25,17.37,76.73,45.34,123.3l2.14,3.56ZM197.4,29.12c8.23,7,21.74,24.2,19.81,60.84C215.47,123,201,163.35,175.34,206.8,149.5,163,134.83,122.43,132.85,89.38c-2.2-36.61,11.09-53.62,19.2-60.51a34.56,34.56,0,0,1,22.45-8.51A35.25,35.25,0,0,1,197.4,29.12ZM166.5,194a1.76,1.76,0,0,1,1.16.39c-5-5-25.87-88.24-7.72-171.36L155.06,22c-17.67,80.92,1,166,8.66,175.5A3.53,3.53,0,0,0,166.5,199Zm20.41,2.71c9.72-12.45,27.89-94.28,7.62-174.82l-4.85,1.22c11.38,45.22,10,87.74,6.84,115.45-4,35.13-11.65,54-14,55.58a1.21,1.21,0,0,1,.61-.14h0v5h0C185.13,199,186.47,197.28,186.91,196.71ZM177,19.5h-5v192h5Z" transform="translate(-127.61 -15.31)"/>
		</symbol>

		<symbol id="Knife" xmlns="http://www.w3.org/2000/svg" viewBox="0 0 40.43 295.84">
			<title>Knife</title>
			<path d="M176,309h-1a12,12,0,0,1-12-12V190a12,12,0,0,1,12-12h1a12,12,0,0,1,12,12V297A12,12,0,0,1,176,309Zm0-126h-1a7,7,0,0,0-7,7V297a7,7,0,0,0,7,7h1a7,7,0,0,0,7-7V190a7,7,0,0,0-7-7m0-5a12,12,0,0,1,12,12V297a12,12,0,0,1-12,12h-1a12,12,0,0,1-12-12V190a12,12,0,0,1,12-12Zm-7,7.47-2-171-5,.06,2,171ZM166.61,13.16l-4.22,2.68c16.15,25.38,27.3,55.86,32.26,88.16,4.47,29.06,3.55,57.42-2.56,79.84l4.82,1.32C208.35,143.22,203.74,71.51,166.61,13.16ZM194.5,182h-12v5h12ZM164.44,17.46m.14-2.39,29.84,169.22" transform="translate(-162 -13.16)"/>
		</symbol>

		<symbol id="Roller" xmlns="http://www.w3.org/2000/svg" viewBox="0 0 290.21 252.19">
			<title>Roller</title>
			<path d="M260.45,75.3,290,110.54a12,12,0,0,1-1.48,16.91l-182.32,153A12,12,0,0,1,89.31,279L59.75,243.72a12,12,0,0,1,1.48-16.91l182.31-153A12,12,0,0,1,260.45,75.3Zm-9.21.73a7,7,0,0,0-4.48,1.62l-182.32,153a7,7,0,0,0-.86,9.86l29.57,35.24a7,7,0,0,0,9.86.86l182.31-153a7,7,0,0,0,.87-9.87L256.62,78.52A7,7,0,0,0,251.24,76m0-5a12,12,0,0,1,9.21,4.27L290,110.54a12,12,0,0,1-1.48,16.91l-182.32,153A12,12,0,0,1,89.31,279L59.75,243.72a12,12,0,0,1,1.48-16.91l182.31-153a12,12,0,0,1,7.7-2.79ZM318.63,51.1c-7.25-8.4-33.61,8.76-55.86,27.62L266,82.54c32.24-27.33,47.09-30.21,48.84-28.18s-3.26,16.38-35.11,44.39l3.3,3.76C305,83.18,325.91,59.52,318.63,51.1ZM87.23,271.28,84,267.47c-32.24,27.32-47.08,30.21-48.84,28.17s3.26-16.38,35.11-44.39L67,247.5c-22,19.32-42.88,43-35.6,51.41A7,7,0,0,0,37,301.09C47.94,301.09,69,286.76,87.23,271.28Z" transform="translate(-29.9 -48.91)"/>
		</symbol>

		<symbol id="Pot" xmlns="http://www.w3.org/2000/svg" viewBox="0 0 261.7 263.16">
			<title>Pot</title>
			<path d="M267.5,302H82.5a12,12,0,0,1-12-12V90a12,12,0,0,1,12-12h185a12,12,0,0,1,12,12V290A12,12,0,0,1,267.5,302ZM267.5,83H82.5a7,7,0,0,0-7,7V290a7,7,0,0,0,7,7h185a7,7,0,0,0,7-7V90a7,7,0,0,0-7-7m0-5a12,12,0,0,1,12,12V290a12,12,0,0,1-12,12H82.5a12,12,0,0,1-12-12V90a12,12,0,0,1,12-12Zm8,32,0-5-203,1,0,5Zm25.84.62A12.82,12.82,0,0,0,300,96.93c-4.33-5.38-12.71-7.16-23-4.87L278,96.94c8.36-1.86,14.93-.72,18,3.12a7.8,7.8,0,0,1,.75,8.46c-2,4.4-8.21,9.21-19.37,9.48l.12,5C289,122.72,297.88,118.09,301.35,110.62ZM71.25,118c-11.16-.27-17.32-5.08-19.37-9.48a7.84,7.84,0,0,1,.75-8.46c3.09-3.84,9.66-5,18-3.12l1.09-4.88c-10.29-2.29-18.68-.51-23,4.87a12.8,12.8,0,0,0-1.38,13.69c3.46,7.47,12.35,12.1,23.78,12.38ZM217,78.44A32.17,32.17,0,0,0,203.14,52c-7.65-5.45-17.84-8.39-28.7-8.22-20.68.28-41.55,12.29-41.44,34.7l5,0c-.07-14.06,11.32-29.34,36.51-29.68,17.72-.29,37,9,37.49,29.75Z" transform="translate(-43.5 -41.3)"/>
		</symbol>	
</svg>