<svg id="Knife" xmlns="http://www.w3.org/2000/svg" viewBox="0 0 40.43 295.84">

	<title>Knife</title>

	<defs>
		<style>
			path {
				animation: spin 15s linear infinite;
			}

			@keyframes spin {
				from {transform: rotate(0deg);}
				to {transform: rotate(90deg);}
			}
		</style>
	</defs>

	<path d="M176,309h-1a12,12,0,0,1-12-12V190a12,12,0,0,1,12-12h1a12,12,0,0,1,12,12V297A12,12,0,0,1,176,309Zm0-126h-1a7,7,0,0,0-7,7V297a7,7,0,0,0,7,7h1a7,7,0,0,0,7-7V190a7,7,0,0,0-7-7m0-5a12,12,0,0,1,12,12V297a12,12,0,0,1-12,12h-1a12,12,0,0,1-12-12V190a12,12,0,0,1,12-12Zm-7,7.47-2-171-5,.06,2,171ZM166.61,13.16l-4.22,2.68c16.15,25.38,27.3,55.86,32.26,88.16,4.47,29.06,3.55,57.42-2.56,79.84l4.82,1.32C208.35,143.22,203.74,71.51,166.61,13.16ZM194.5,182h-12v5h12ZM164.44,17.46m.14-2.39,29.84,169.22" transform="translate(-162 -13.16)"/>

</svg>