<svg id="Layer_1" data-name="Layer 1" xmlns="http://www.w3.org/2000/svg" viewBox="0 0 261.7 263.16">
	
	<title>Pot</title>

	<defs>
		<style>
			path {
				animation: fadeOut 5s linear infinite;
			}

			@keyframes fadeOut {
				0% {opacity: 1;}
				50% {opacity: 0.5;}
				100% {opacity: 0;}
			}
		</style>
	</defs>
	
	<path d="M267.5,302H82.5a12,12,0,0,1-12-12V90a12,12,0,0,1,12-12h185a12,12,0,0,1,12,12V290A12,12,0,0,1,267.5,302ZM267.5,83H82.5a7,7,0,0,0-7,7V290a7,7,0,0,0,7,7h185a7,7,0,0,0,7-7V90a7,7,0,0,0-7-7m0-5a12,12,0,0,1,12,12V290a12,12,0,0,1-12,12H82.5a12,12,0,0,1-12-12V90a12,12,0,0,1,12-12Zm8,32,0-5-203,1,0,5Zm25.84.62A12.82,12.82,0,0,0,300,96.93c-4.33-5.38-12.71-7.16-23-4.87L278,96.94c8.36-1.86,14.93-.72,18,3.12a7.8,7.8,0,0,1,.75,8.46c-2,4.4-8.21,9.21-19.37,9.48l.12,5C289,122.72,297.88,118.09,301.35,110.62ZM71.25,118c-11.16-.27-17.32-5.08-19.37-9.48a7.84,7.84,0,0,1,.75-8.46c3.09-3.84,9.66-5,18-3.12l1.09-4.88c-10.29-2.29-18.68-.51-23,4.87a12.8,12.8,0,0,0-1.38,13.69c3.46,7.47,12.35,12.1,23.78,12.38ZM217,78.44A32.17,32.17,0,0,0,203.14,52c-7.65-5.45-17.84-8.39-28.7-8.22-20.68.28-41.55,12.29-41.44,34.7l5,0c-.07-14.06,11.32-29.34,36.51-29.68,17.72-.29,37,9,37.49,29.75Z" transform="translate(-43.5 -41.3)" fill="none" stroke="#000" stroke-miterlimit="10" stroke-width="5"/>

</svg>