<svg id="Roller" xmlns="http://www.w3.org/2000/svg" viewBox="0 0 290.21 252.19">
	
	<title>Roller</title>

	<defs>
		<style>
			path {
				animation: sizeUp 15s linear infinite;
			}

			@keyframes sizeUp {
				0% {transform: scale(1.0);}
				25% {transform: scale(1.3);}
				50% {transform: scale(1.5);}
				75% {transform: scale(1.7);}
				100% {transform: scale(2.0);}
			}
		</style>
	</defs>

	<path d="M260.45,75.3,290,110.54a12,12,0,0,1-1.48,16.91l-182.32,153A12,12,0,0,1,89.31,279L59.75,243.72a12,12,0,0,1,1.48-16.91l182.31-153A12,12,0,0,1,260.45,75.3Zm-9.21.73a7,7,0,0,0-4.48,1.62l-182.32,153a7,7,0,0,0-.86,9.86l29.57,35.24a7,7,0,0,0,9.86.86l182.31-153a7,7,0,0,0,.87-9.87L256.62,78.52A7,7,0,0,0,251.24,76m0-5a12,12,0,0,1,9.21,4.27L290,110.54a12,12,0,0,1-1.48,16.91l-182.32,153A12,12,0,0,1,89.31,279L59.75,243.72a12,12,0,0,1,1.48-16.91l182.31-153a12,12,0,0,1,7.7-2.79ZM318.63,51.1c-7.25-8.4-33.61,8.76-55.86,27.62L266,82.54c32.24-27.33,47.09-30.21,48.84-28.18s-3.26,16.38-35.11,44.39l3.3,3.76C305,83.18,325.91,59.52,318.63,51.1ZM87.23,271.28,84,267.47c-32.24,27.32-47.08,30.21-48.84,28.17s3.26-16.38,35.11-44.39L67,247.5c-22,19.32-42.88,43-35.6,51.41A7,7,0,0,0,37,301.09C47.94,301.09,69,286.76,87.23,271.28Z" transform="translate(-29.9 -48.91)"/>

</svg>